<svg xmlns="http://www.w3.org/2000/svg" id="Capa_1" viewBox="0 0 260 52.5">
  <style>
    .st1{fill:#fff}
  </style>
  <g id="Group_1" transform="translate(-49 -13)">
    <g id="XMLID_1_" transform="translate(62 29)">
      <g id="XMLID_3_">
        <path id="XMLID_4_" fill="#6abda6" d="M43 36.5c-8.9 0-16.1-7.2-16.1-16.1V.1c0-2.1-1.7-3.8-3.8-3.8C21-3.7 19.3-2 19.3.1v20.2c0 8.9-7.2 16.1-16.1 16.1S-13 29.3-13 20.4c0-3.4 2.8-6.2 6.2-6.2 3.4 0 6.2 2.8 6.2 6.2 0 2.1 1.7 3.8 3.8 3.8 2.1 0 3.8-1.7 3.8-3.8V.1C7-8.8 14.2-16 23.1-16S39.2-8.8 39.2.1v20.2c0 2.1 1.7 3.8 3.8 3.8 2.1 0 3.8-1.7 3.8-3.8V-9.9c.1-3.4 2.9-6.1 6.3-6 3.3.1 6 2.7 6 6v30.2c0 9-7.2 16.2-16.1 16.2"/>
      </g>
    </g>
    <g id="XMLID_5_" transform="translate(151 37.632)">
      <path id="XMLID_16_" d="M-3 14c-.4-.6-.2-1.4.4-1.7.2-.1.4-.2.6-.2.4 0 .8.2 1 .6 2 3 4.1 4.6 7.8 4.6 4.1 0 7.2-3.1 7.2-8.9v-21.6c0-.7.5-1.2 1.2-1.2s1.2.5 1.2 1.2V8.1c0 3.8-1.2 6.8-3 8.7-1.8 1.8-4.3 2.7-6.8 2.7-4 0-7.7-2.1-9.6-5.5z" class="st1"/>
      <path id="XMLID_13_" d="M21.3 6.9v-.1C21.2-.1 26.7-5.8 33.7-5.9h.1c6.8 0 12.4 5.5 12.4 12.4V6.8c.1 6.9-5.4 12.6-12.3 12.7h-.2c-6.8 0-12.4-5.5-12.4-12.3v-.3zm22.4 0v-.1c.2-5.6-4.2-10.3-9.8-10.5h-.2c-5.8 0-9.9 4.7-9.9 10.4v.1c-.2 5.6 4.2 10.3 9.8 10.5h.2c5.8 0 9.9-4.7 9.9-10.4z" class="st1"/>
      <g id="XMLID_10_" transform="translate(48.885)">
        <path id="XMLID_12_" d="M3.6-11.4c.8 0 1.5-.6 1.5-1.4v-.8c0-.8-.7-1.4-1.5-1.4s-1.4.6-1.4 1.4v.8c0 .8.6 1.4 1.4 1.4z" class="st1"/>
        <path id="XMLID_11_" d="M48.7-5.9C45-6 41.6-4 39.9-.8v-3.5c0-.6-.5-1.2-1.1-1.2-.6 0-1.2.5-1.2 1.1v18.6c0 1.7-1.3 3-3 3s-3-1.3-3-3V4.1c0-5.8-3.6-10-9.7-10C18.2-6 14.8-4 13.1-.8v-3.5c0-.6-.5-1.2-1.1-1.2-.6 0-1.2.5-1.2 1.1v18.6c0 1.7-1.3 3-3 3s-3-1.3-3-3V-4.3c0-.6-.5-1.2-1.1-1.2-.7 0-1.2.5-1.2 1.1v18.6c0 2.9 2.5 5.3 5.4 5.2 2.9 0 5.2-2.4 5.2-5.2V4.9c-.2-4.6 3.4-8.5 8-8.7h.4c4.9 0 7.7 3.3 7.7 8.3v9.6c0 2.9 2.4 5.3 5.3 5.3s5.3-2.4 5.3-5.3V4.9c-.2-4.6 3.4-8.5 8-8.7h.4c4.9 0 7.7 3.3 7.7 8.3v13.8c0 .6.5 1.2 1.1 1.2h.1c.6 0 1.1-.5 1.2-1.1V4.1c0-5.8-3.5-10-9.6-10z" class="st1"/>
      </g>
      <path id="XMLID_8_" d="M111.8 10V-6.5h7.2V7.7c0 3.4 1.6 5.2 4.4 5.2s4.5-1.7 4.5-5.2V-6.5h7.2V19H128v-3.6c-1.7 2.1-3.8 4.1-7.5 4.1-5.5-.1-8.7-3.7-8.7-9.5z" class="st1"/>
      <path id="XMLID_6_" d="M137.3 15.6l3.1-4.8c2.3 1.8 5.1 2.9 8 3 2.1 0 3-.8 3-1.9v-.1c0-1.6-2.5-2.1-5.3-2.9-3.6-1-7.6-2.7-7.6-7.7 0-5.2 4.2-8.1 9.3-8.1 3.4 0 6.7 1.1 9.5 2.9l-2.8 5c-2.1-1.3-4.4-2.2-6.9-2.4-1.7 0-2.7.8-2.7 1.7v.1c0 1.4 2.4 2.1 5.2 3 3.6 1.2 7.7 2.9 7.7 7.5v.1c0 5.7-4.2 8.2-9.7 8.2-3.8.2-7.7-1.1-10.8-3.6z" class="st1"/>
    </g>
  </g>
</svg>
